<svg width="223" height="169" viewBox="0 0 223 169" fill="none" xmlns="http://www.w3.org/2000/svg">
<g clip-path="url(#clip0_86_945)">
<path d="M167.697 93.0679C173.244 88.9893 182.351 92.0026 182.351 101.816C185.017 96.3092 196.671 97.6426 196.071 106.869C199.684 104.483 204.671 106.643 204.511 111.749C209.404 109.123 218.391 114.523 216.432 122.495C213.777 121.629 210.644 122.083 208.071 124.203C206.511 118.136 200.111 116.256 194.511 116.643C190.152 116.948 186.457 120.243 185.057 123.696C182.617 122.161 179.404 121.828 175.844 122.643C169.737 124.029 166.177 127.816 165.404 133.083C162.671 127.976 155.177 130.136 154.284 134.869C152.351 127.976 145.511 125.976 140.844 126.483C136.831 126.909 131.684 129.149 130.164 135.029C126.844 131.841 121.471 129.495 115.617 129.976C111.217 130.336 107.137 132.603 104.644 135.948C103.977 130.068 92.5908 127.856 88.3254 133.376C86.2708 130.976 82.8041 129.123 79.0174 128.803C75.2308 128.495 70.1641 129.469 67.2441 132.923C66.4174 127.443 58.8974 124.068 53.6707 126.068C52.0307 119.828 39.6308 115.309 33.8441 125.536C33.1774 119.309 28.2841 116.869 23.8441 116.869C17.1641 116.869 13.6174 121.976 13.4041 125.083C11.8041 124.189 10.0174 123.976 8.31078 124.309C6.15211 116.429 15.4441 110.388 20.7374 113.976C19.4041 105.976 29.1774 102.643 33.6841 107.976C31.8574 100.816 39.3255 95.7626 45.1241 97.8959C47.1521 90.4946 59.5508 86.1612 65.8441 94.4159C66.7374 89.0826 71.9374 85.5892 78.3508 86.4826C81.3374 86.8959 83.6841 88.3879 85.1908 90.2559C87.4041 84.2292 96.7654 82.9625 99.8441 88.3092C101.777 77.5492 120.137 72.6146 127.511 84.0026C129.964 82.7626 133.031 82.4012 136.511 83.3092C142.071 84.7625 145.017 89.4692 145.404 93.0826C148.791 83.3092 164.644 85.0826 167.684 93.0679H167.697Z" fill="#D87639"/>
<path d="M33.844 125.536C39.6307 115.309 52.0306 119.828 53.6706 126.068C58.8973 124.068 66.4174 127.443 67.244 132.923C70.164 129.469 75.2307 128.495 79.0173 128.803C82.804 129.123 86.2707 130.976 88.3253 133.376C92.5907 127.856 103.977 130.068 104.644 135.948C107.137 132.603 111.217 130.336 115.617 129.976C121.471 129.495 126.844 131.841 130.164 135.029C131.684 129.149 136.831 126.909 140.844 126.483C145.511 125.976 152.351 127.976 154.284 134.869C155.177 130.136 162.671 127.976 165.404 133.083C166.177 127.816 169.737 124.029 175.844 122.643C179.404 121.828 182.617 122.161 185.057 123.696C186.392 120.404 189.821 117.287 193.915 116.735C190.54 113.469 184.227 113.94 182.351 117.816C182.351 108.003 173.244 104.989 167.697 109.068H167.684C164.644 101.083 148.791 99.3092 145.404 109.083C145.017 105.469 142.071 100.763 136.511 99.3092C133.031 98.4012 129.964 98.7626 127.511 100.003C120.137 88.6146 101.777 93.5492 99.844 104.309C96.7653 98.9625 87.404 100.229 85.1907 106.256C83.684 104.388 81.3373 102.896 78.3507 102.483C71.9373 101.589 66.7374 105.083 65.844 110.416C59.5507 102.161 47.152 106.495 45.124 113.896C39.3254 111.763 31.8573 116.816 33.684 123.976L33.516 123.808C33.66 124.352 33.7774 124.92 33.844 125.536Z" fill="#B74F2F"/>
<path d="M192.73 127.087C192.73 138.315 159.152 147.42 117.73 147.42C76.3105 147.42 42.7305 138.315 42.7305 127.087C42.7305 115.859 76.3105 106.753 117.73 106.753C159.152 106.753 192.73 115.859 192.73 127.087Z" fill="#612D26"/>
<path d="M216.432 122.495C219.911 123.615 222.604 126.976 222.284 131.749C221.791 139.296 216.831 141.549 211.724 140.816C211.724 142.175 211.417 143.629 210.737 145.083C208.379 150.189 200.071 152.203 192.071 148.643C190.099 159.243 176.071 159.828 170.617 156.401C167.871 162.629 158.765 164.416 153.897 160.456C151.804 166.656 140.604 167.896 136.671 161.643C133.017 166.976 126.791 169.643 116.671 168.643C111.099 168.083 107.671 166.229 105.644 163.936C96.9507 172.216 82.2974 166.803 80.004 159.643C77.684 162.803 72.3508 164.803 65.8441 163.643C62.2041 162.989 58.5374 160.523 56.8841 156.936C51.5774 163.309 38.6174 160.068 37.6841 152.309C31.4574 154.589 20.0041 153.976 16.3507 148.483C15.0707 146.563 14.3374 144.696 14.0307 142.936C5.97741 143.549 0.804088 139.963 0.510754 133.976C0.270754 129.123 4.08409 125.096 8.31075 124.309C10.0174 123.976 11.804 124.189 13.404 125.083C13.6174 121.976 17.1641 116.869 23.8441 116.869C28.2841 116.869 33.1774 119.309 33.8441 125.536C39.6308 115.309 52.0307 119.828 53.6707 126.068C58.8974 124.068 66.4174 127.443 67.2441 132.923C70.1641 129.469 75.2307 128.495 79.0174 128.803C82.8041 129.123 86.2707 130.976 88.3254 133.376C92.5907 127.856 103.977 130.068 104.644 135.948C107.137 132.603 111.217 130.336 115.617 129.976C121.471 129.495 126.844 131.841 130.164 135.029C131.684 129.149 136.831 126.909 140.844 126.483C145.511 125.976 152.351 127.976 154.284 134.869C155.177 130.136 162.671 127.976 165.404 133.083C166.177 127.816 169.737 124.029 175.844 122.643C179.404 121.828 182.617 122.161 185.057 123.696C186.457 120.243 190.152 116.948 194.511 116.643C200.111 116.256 206.511 118.136 208.071 124.203C210.644 122.083 213.777 121.629 216.432 122.495Z" fill="#E88D3A"/>
<path d="M217.049 122.753C216.479 129.724 211.819 131.817 207.013 131.128C207.013 132.424 206.721 133.809 206.075 135.193C203.825 140.06 195.908 141.98 188.284 138.587C186.403 148.689 173.035 149.248 167.837 145.983C165.219 151.917 156.543 153.62 151.903 149.844C149.907 155.753 139.235 156.936 135.485 150.976C132.001 156.059 126.068 158.601 116.424 157.648C111.112 157.113 107.845 155.347 105.915 153.161C97.6293 161.052 83.6626 155.893 81.4786 149.071C79.2679 152.081 74.1839 153.988 67.9839 152.881C64.5133 152.26 61.0186 149.909 59.444 146.491C54.3853 152.564 42.0359 149.477 41.1453 142.081C35.2106 144.253 24.2946 143.669 20.8133 138.433C19.5933 136.604 18.8933 134.825 18.6026 133.149C11.1973 133.712 6.3613 130.545 5.7773 125.197C2.68396 126.803 0.321297 130.125 0.51063 133.976C0.803963 139.963 5.97728 143.549 14.0306 142.936C14.3373 144.696 15.0706 146.563 16.3506 148.483C20.0039 153.976 31.4573 154.589 37.6839 152.309C38.6173 160.068 51.5773 163.309 56.8839 156.936C58.5373 160.523 62.204 162.989 65.844 163.643C72.3506 164.803 77.6839 162.803 80.0039 159.643C82.2973 166.803 96.9506 172.216 105.644 163.936C107.671 166.229 111.099 168.083 116.671 168.643C126.791 169.643 133.017 166.976 136.671 161.643C140.604 167.896 151.804 166.656 153.897 160.456C158.765 164.416 167.871 162.629 170.617 156.401C176.071 159.828 190.099 159.243 192.071 148.643C200.071 152.203 208.379 150.189 210.737 145.083C211.417 143.629 211.724 142.175 211.724 140.816C216.831 141.549 221.791 139.296 222.284 131.749C222.585 127.269 220.219 124.057 217.049 122.753Z" fill="#D87639"/>
<path d="M30.3037 127.045L30.3277 127.063L30.3837 127.103L30.3037 127.045Z" fill="#F1AC56"/>
<path d="M30.8279 127.449C30.6612 127.321 30.4932 127.192 30.3279 127.063C29.7892 126.581 29.1478 126.263 28.4732 126.132C28.7225 125.5 28.8532 124.759 28.7719 124.087C28.5705 122.401 27.9572 121.295 26.5732 120.284C25.4918 119.495 24.0025 119.581 22.7665 119.776C21.6839 119.948 20.6492 120.737 19.8758 121.459C18.0532 123.157 16.9798 126.063 18.3345 128.357C19.4225 130.196 21.8025 130.907 23.8425 130.471C23.7879 131.061 23.8532 131.659 24.0919 132.235C24.4385 133.071 24.5652 133.293 25.1439 134.011C25.6879 134.685 26.6919 134.956 27.5106 134.991C27.7759 135.001 28.4319 135.181 27.5959 134.961C29.1199 135.363 30.6612 134.709 31.4839 133.38C32.0452 132.472 32.0279 131.465 32.0639 130.448C32.0905 129.704 31.8945 128.891 31.4919 128.261C31.3252 127.94 31.1025 127.669 30.8279 127.449Z" fill="#F1AC56"/>
<path d="M55.6814 135.251L55.4201 135.057C55.0681 134.633 54.6374 134.284 54.1401 134.045C53.7147 132.732 52.8428 131.592 51.5601 130.789C50.7441 130.279 49.6308 130.008 48.6148 130.103C48.6388 129.851 48.6588 129.597 48.6414 129.353C48.5401 127.917 48.0348 126.761 47.0814 125.685C45.5081 123.911 42.4455 124.011 40.8548 125.655C39.6841 126.863 39.5481 128.489 40.1481 129.815C39.8721 130.983 40.2974 132.265 41.1001 133.149C41.7894 133.912 43.0348 134.264 44.0481 134.197C43.5308 135.407 43.4267 136.821 43.7761 138.039C44.4681 140.436 46.6561 141.416 48.8694 141.292C49.6774 141.427 50.5135 141.436 51.3881 141.415L51.5161 141.469H51.5241C52.9175 142.043 54.4708 141.912 55.6814 140.701C57.0468 139.336 57.3228 136.568 55.6814 135.251Z" fill="#F1AC56"/>
<path d="M75.2413 133.876C73.9346 134.176 72.6173 134.796 71.552 135.675C71.228 135.467 70.876 135.292 70.48 135.131C72.056 135.773 71.1053 135.355 70.7199 135.161C69.7213 134.661 69.0386 134.513 67.9373 134.397C67.0919 134.309 66.0346 134.621 65.3213 135.063C64.472 135.589 63.5173 136.556 63.3679 137.576C63.2053 138.683 63.204 138.856 63.3693 139.96C63.5626 141.264 64.9119 142.371 66.1066 142.699C66.4839 142.803 66.8853 142.839 67.288 142.821L67.436 142.876C68.3026 143.103 69.1026 142.999 69.8933 142.748C70.164 143.284 70.4973 143.787 70.9119 144.224C71.4146 145.413 72.3973 146.425 73.8626 146.911C76.488 147.78 79.8253 147.311 82.0226 145.672C85.3373 143.204 86.548 138.913 83.6053 135.615C81.648 133.421 77.896 133.267 75.2413 133.876Z" fill="#F1AC56"/>
<path d="M59.1787 129.386C57.6467 129.386 56.3667 130.664 56.3667 132.199C56.3667 133.732 57.6467 135.011 59.1787 135.011C60.712 135.011 61.992 133.732 61.992 132.199C61.992 130.664 60.712 129.386 59.1787 129.386Z" fill="#F1AC56"/>
<path d="M132.067 143.424C130.676 143.424 129.515 144.584 129.515 145.976C129.515 147.368 130.676 148.528 132.067 148.528C133.457 148.528 134.619 147.368 134.619 145.976C134.619 144.584 133.457 143.424 132.067 143.424Z" fill="#F1AC56"/>
<path d="M34.037 135.451L33.9384 135.524C32.8797 135.82 32.197 137.233 33.169 138.207C34.145 139.183 35.5664 138.493 35.8571 137.431L35.925 137.339C36.733 136.245 35.129 134.64 34.037 135.451Z" fill="#F1AC56"/>
<path d="M99.9637 139.349C98.9357 138.893 98.1544 138.639 96.9984 138.612C95.9557 138.589 94.889 139.016 93.989 139.483C91.5344 140.753 90.2931 144.139 91.8291 146.547C92.2984 147.281 92.933 147.86 93.6757 148.232C94.2664 148.865 95.0277 149.336 95.8691 149.516C97.0944 149.776 98.1597 149.565 99.2771 149.013L99.465 148.892C100.324 148.221 100.428 148.147 99.7771 148.664C100.162 148.425 100.518 148.125 100.854 147.82C102.05 146.727 102.661 145.491 102.816 143.867C102.989 142.049 101.568 140.06 99.9637 139.349Z" fill="#F1AC56"/>
<path d="M126.472 138.901C124.772 137.144 122.388 136.324 120.011 136.074C117.011 135.764 114.549 136.617 112.769 139.141C112.556 139.442 112.379 139.752 112.219 140.065C110.903 139.468 109.332 139.38 107.903 139.628C107.589 139.682 107.293 139.782 107.012 139.912C105.056 140.6 103.731 142.757 103.968 144.813C104.228 147.069 105.601 148.966 107.913 149.48C109.899 149.92 111.803 149.412 113.355 148.128L113.387 148.094C114.391 149.201 115.745 150.034 117.352 150.39C117.76 150.482 118.164 150.528 118.569 150.552C119.455 150.716 120.361 150.672 121.201 150.417C121.335 150.428 121.464 150.441 121.6 150.448C127.275 150.688 130.269 142.826 126.472 138.901Z" fill="#F1AC56"/>
<path d="M148.033 135.073C148.005 134.864 147.967 134.656 147.9 134.451C147.543 133.368 146.477 132.28 145.224 132.415C143.861 132.56 142.679 133.059 141.944 134.303C141.545 134.98 141.453 135.709 141.552 136.401C139.325 136.533 137.481 138.231 137.411 140.513C137.352 140.704 137.301 140.893 137.265 141.081C136.932 142.769 137.72 144.852 139.616 145.221C140.839 145.461 141.921 145.563 143.148 145.328C145.407 144.899 146.769 142.832 146.856 140.643C146.88 140.057 146.737 139.497 146.495 138.983C147.515 138.376 148.191 137.227 148.125 136.06L148.136 135.98C148.125 135.6 148.004 134.759 148.033 135.073Z" fill="#F1AC56"/>
<path d="M189.511 128.992C188.64 128.992 187.835 129.292 187.173 129.78L187.073 129.525C186.944 129.251 186.637 128.393 187.027 129.568C186.837 128.997 186.557 128.352 186.213 127.837C184.605 125.433 182.1 124.437 179.269 124.865C180.916 124.617 179.033 124.828 178.483 125.013C177.645 125.292 176.889 125.685 176.259 126.316C175.052 127.521 174.512 129.4 174.96 131.055L174.901 131.403C174.259 131.368 173.567 131.437 173.087 131.612C171.931 132.033 171.203 132.647 170.475 133.519C170.06 133.385 169.631 133.293 169.177 133.293C167.071 133.293 165.283 134.857 164.909 136.868C164.492 136.485 164.024 136.156 163.581 135.917C162.179 135.163 160.628 134.928 159.079 135.323C157.389 135.752 155.979 137.48 156.047 139.257L155.992 139.324C155.405 140.152 155.444 141.313 155.649 142.245C155.876 143.284 156.763 144.199 157.639 144.751C158.655 145.392 159.992 145.639 161.176 145.519C162.544 145.383 164.187 145.036 165.147 143.943C165.737 143.269 166.216 142.597 166.429 141.708C166.484 141.477 166.501 141.261 166.521 141.044C167.263 141.627 168.179 141.992 169.177 141.992C169.857 141.992 170.495 141.815 171.073 141.527C171.304 141.693 171.548 141.836 171.807 141.956C172.22 142.643 173.008 143.36 173.825 143.492C174.999 143.685 175.961 143.896 177.163 143.656C178.932 143.303 180.048 141.589 180.628 140.021C180.849 139.424 180.921 138.828 180.885 138.253C181.72 138.251 182.545 138.147 183.241 137.991C184.527 137.703 185.773 136.811 186.62 135.681C187.352 136.461 188.379 136.96 189.511 136.96C191.683 136.96 193.495 135.148 193.495 132.976C193.495 130.804 191.683 128.992 189.511 128.992Z" fill="#F1AC56"/>
<path d="M216.432 122.495C219.911 123.615 222.604 126.976 222.284 131.749C221.791 139.296 216.831 141.549 211.724 140.816C211.724 142.175 211.417 143.629 210.737 145.083C208.379 150.189 200.071 152.203 192.071 148.643C190.099 159.243 176.071 159.828 170.617 156.401C167.871 162.629 158.765 164.416 153.897 160.456C151.804 166.656 140.604 167.896 136.671 161.643C133.017 166.976 126.791 169.643 116.671 168.643C111.099 168.083 107.671 166.229 105.644 163.936C96.9507 172.216 82.2974 166.803 80.004 159.643C77.684 162.803 72.3508 164.803 65.8441 163.643C62.2041 162.989 58.5374 160.523 56.8841 156.936C51.5774 163.309 38.6174 160.068 37.6841 152.309C31.4574 154.589 20.0041 153.976 16.3507 148.483C15.0707 146.563 14.3374 144.696 14.0307 142.936C5.97741 143.549 0.804088 139.963 0.510754 133.976C0.270754 129.123 4.08409 125.096 8.31075 124.309C10.0174 123.976 11.804 124.189 13.404 125.083C13.6174 121.976 17.1641 116.869 23.8441 116.869C28.2841 116.869 33.1774 119.309 33.8441 125.536C39.6308 115.309 52.0307 119.828 53.6707 126.068C58.8974 124.068 66.4174 127.443 67.2441 132.923C70.1641 129.469 75.2307 128.495 79.0174 128.803C82.8041 129.123 86.2707 130.976 88.3254 133.376C92.5907 127.856 103.977 130.068 104.644 135.948C107.137 132.603 111.217 130.336 115.617 129.976C121.471 129.495 126.844 131.841 130.164 135.029C131.684 129.149 136.831 126.909 140.844 126.483C145.511 125.976 152.351 127.976 154.284 134.869C155.177 130.136 162.671 127.976 165.404 133.083C166.177 127.816 169.737 124.029 175.844 122.643C179.404 121.828 182.617 122.161 185.057 123.696C186.457 120.243 190.152 116.948 194.511 116.643C200.111 116.256 206.511 118.136 208.071 124.203C210.644 122.083 213.777 121.629 216.432 122.495Z" fill="#E88D3A"/>
<path d="M217.049 122.753C216.479 129.724 211.819 131.817 207.013 131.128C207.013 132.424 206.721 133.809 206.075 135.193C203.825 140.06 195.908 141.98 188.284 138.587C186.403 148.689 173.035 149.248 167.837 145.983C165.219 151.917 156.543 153.62 151.903 149.844C149.907 155.753 139.235 156.936 135.485 150.976C132.001 156.059 126.068 158.601 116.424 157.648C111.112 157.113 107.845 155.347 105.915 153.161C97.6293 161.052 83.6626 155.893 81.4786 149.071C79.2679 152.081 74.1839 153.988 67.9839 152.881C64.5133 152.26 61.0186 149.909 59.444 146.491C54.3853 152.564 42.0359 149.477 41.1453 142.081C35.2106 144.253 24.2946 143.669 20.8133 138.433C19.5933 136.604 18.8933 134.825 18.6026 133.149C11.1973 133.712 6.3613 130.545 5.7773 125.197C2.68396 126.803 0.321297 130.125 0.51063 133.976C0.803963 139.963 5.97728 143.549 14.0306 142.936C14.3373 144.696 15.0706 146.563 16.3506 148.483C20.0039 153.976 31.4573 154.589 37.6839 152.309C38.6173 160.068 51.5773 163.309 56.8839 156.936C58.5373 160.523 62.204 162.989 65.844 163.643C72.3506 164.803 77.6839 162.803 80.0039 159.643C82.2973 166.803 96.9506 172.216 105.644 163.936C107.671 166.229 111.099 168.083 116.671 168.643C126.791 169.643 133.017 166.976 136.671 161.643C140.604 167.896 151.804 166.656 153.897 160.456C158.765 164.416 167.871 162.629 170.617 156.401C176.071 159.828 190.099 159.243 192.071 148.643C200.071 152.203 208.379 150.189 210.737 145.083C211.417 143.629 211.724 142.175 211.724 140.816C216.831 141.549 221.791 139.296 222.284 131.749C222.585 127.269 220.219 124.057 217.049 122.753Z" fill="#D87639"/>
<path d="M30.3037 127.045L30.3277 127.063L30.3837 127.103L30.3037 127.045Z" fill="#F1AC56"/>
<path d="M30.8279 127.449C30.6612 127.321 30.4932 127.192 30.3279 127.063C29.7892 126.581 29.1478 126.263 28.4732 126.132C28.7225 125.5 28.8532 124.759 28.7719 124.087C28.5705 122.401 27.9572 121.295 26.5732 120.284C25.4918 119.495 24.0025 119.581 22.7665 119.776C21.6839 119.948 20.6492 120.737 19.8758 121.459C18.0532 123.157 16.9798 126.063 18.3345 128.357C19.4225 130.196 21.8025 130.907 23.8425 130.471C23.7879 131.061 23.8532 131.659 24.0919 132.235C24.4385 133.071 24.5652 133.293 25.1439 134.011C25.6879 134.685 26.6919 134.956 27.5106 134.991C27.7759 135.001 28.4319 135.181 27.5959 134.961C29.1199 135.363 30.6612 134.709 31.4839 133.38C32.0452 132.472 32.0279 131.465 32.0639 130.448C32.0905 129.704 31.8945 128.891 31.4919 128.261C31.3252 127.94 31.1025 127.669 30.8279 127.449Z" fill="#F1AC56"/>
<path d="M55.6814 135.251L55.4201 135.057C55.0681 134.633 54.6374 134.284 54.1401 134.045C53.7147 132.732 52.8428 131.592 51.5601 130.789C50.7441 130.279 49.6308 130.008 48.6148 130.103C48.6388 129.851 48.6588 129.597 48.6414 129.353C48.5401 127.917 48.0348 126.761 47.0814 125.685C45.5081 123.911 42.4455 124.011 40.8548 125.655C39.6841 126.863 39.5481 128.489 40.1481 129.815C39.8721 130.983 40.2974 132.265 41.1001 133.149C41.7894 133.912 43.0348 134.264 44.0481 134.197C43.5308 135.407 43.4267 136.821 43.7761 138.039C44.4681 140.436 46.6561 141.416 48.8694 141.292C49.6774 141.427 50.5135 141.436 51.3881 141.415L51.5161 141.469H51.5241C52.9175 142.043 54.4708 141.912 55.6814 140.701C57.0468 139.336 57.3228 136.568 55.6814 135.251Z" fill="#F1AC56"/>
<path d="M75.2413 133.876C73.9346 134.176 72.6173 134.796 71.552 135.675C71.228 135.467 70.876 135.292 70.48 135.131C72.056 135.773 71.1053 135.355 70.7199 135.161C69.7213 134.661 69.0386 134.513 67.9373 134.397C67.0919 134.309 66.0346 134.621 65.3213 135.063C64.472 135.589 63.5173 136.556 63.3679 137.576C63.2053 138.683 63.204 138.856 63.3693 139.96C63.5626 141.264 64.9119 142.371 66.1066 142.699C66.4839 142.803 66.8853 142.839 67.288 142.821L67.436 142.876C68.3026 143.103 69.1026 142.999 69.8933 142.748C70.164 143.284 70.4973 143.787 70.9119 144.224C71.4146 145.413 72.3973 146.425 73.8626 146.911C76.488 147.78 79.8253 147.311 82.0226 145.672C85.3373 143.204 86.548 138.913 83.6053 135.615C81.648 133.421 77.896 133.267 75.2413 133.876Z" fill="#F1AC56"/>
<path d="M59.1787 129.386C57.6467 129.386 56.3667 130.664 56.3667 132.199C56.3667 133.732 57.6467 135.011 59.1787 135.011C60.712 135.011 61.992 133.732 61.992 132.199C61.992 130.664 60.712 129.386 59.1787 129.386Z" fill="#F1AC56"/>
<path d="M132.067 143.424C130.676 143.424 129.515 144.584 129.515 145.976C129.515 147.368 130.676 148.528 132.067 148.528C133.457 148.528 134.619 147.368 134.619 145.976C134.619 144.584 133.457 143.424 132.067 143.424Z" fill="#F1AC56"/>
<path d="M34.037 135.451L33.9384 135.524C32.8797 135.82 32.197 137.233 33.169 138.207C34.145 139.183 35.5664 138.493 35.8571 137.431L35.925 137.339C36.733 136.245 35.129 134.64 34.037 135.451Z" fill="#F1AC56"/>
<path d="M99.9637 139.349C98.9357 138.893 98.1544 138.639 96.9984 138.612C95.9557 138.589 94.889 139.016 93.989 139.483C91.5344 140.753 90.2931 144.139 91.8291 146.547C92.2984 147.281 92.933 147.86 93.6757 148.232C94.2664 148.865 95.0277 149.336 95.8691 149.516C97.0944 149.776 98.1597 149.565 99.2771 149.013L99.465 148.892C100.324 148.221 100.428 148.147 99.7771 148.664C100.162 148.425 100.518 148.125 100.854 147.82C102.05 146.727 102.661 145.491 102.816 143.867C102.989 142.049 101.568 140.06 99.9637 139.349Z" fill="#F1AC56"/>
<path d="M126.472 138.901C124.772 137.144 122.388 136.324 120.011 136.074C117.011 135.764 114.549 136.617 112.769 139.141C112.556 139.442 112.379 139.752 112.219 140.065C110.903 139.468 109.332 139.38 107.903 139.628C107.589 139.682 107.293 139.782 107.012 139.912C105.056 140.6 103.731 142.757 103.968 144.813C104.228 147.069 105.601 148.966 107.913 149.48C109.899 149.92 111.803 149.412 113.355 148.128L113.387 148.094C114.391 149.201 115.745 150.034 117.352 150.39C117.76 150.482 118.164 150.528 118.569 150.552C119.455 150.716 120.361 150.672 121.201 150.417C121.335 150.428 121.464 150.441 121.6 150.448C127.275 150.688 130.269 142.826 126.472 138.901Z" fill="#F1AC56"/>
<path d="M148.033 135.073C148.005 134.864 147.967 134.656 147.9 134.451C147.543 133.368 146.477 132.28 145.224 132.415C143.861 132.56 142.679 133.059 141.944 134.303C141.545 134.98 141.453 135.709 141.552 136.401C139.325 136.533 137.481 138.231 137.411 140.513C137.352 140.704 137.301 140.893 137.265 141.081C136.932 142.769 137.72 144.852 139.616 145.221C140.839 145.461 141.921 145.563 143.148 145.328C145.407 144.899 146.769 142.832 146.856 140.643C146.88 140.057 146.737 139.497 146.495 138.983C147.515 138.376 148.191 137.227 148.125 136.06L148.136 135.98C148.125 135.6 148.004 134.759 148.033 135.073Z" fill="#F1AC56"/>
<path d="M189.511 128.992C188.64 128.992 187.835 129.292 187.173 129.78L187.073 129.525C186.944 129.251 186.637 128.393 187.027 129.568C186.837 128.997 186.557 128.352 186.213 127.837C184.605 125.433 182.1 124.437 179.269 124.865C180.916 124.617 179.033 124.828 178.483 125.013C177.645 125.292 176.889 125.685 176.259 126.316C175.052 127.521 174.512 129.4 174.96 131.055L174.901 131.403C174.259 131.368 173.567 131.437 173.087 131.612C171.931 132.033 171.203 132.647 170.475 133.519C170.06 133.385 169.631 133.293 169.177 133.293C167.071 133.293 165.283 134.857 164.909 136.868C164.492 136.485 164.024 136.156 163.581 135.917C162.179 135.163 160.628 134.928 159.079 135.323C157.389 135.752 155.979 137.48 156.047 139.257L155.992 139.324C155.405 140.152 155.444 141.313 155.649 142.245C155.876 143.284 156.763 144.199 157.639 144.751C158.655 145.392 159.992 145.639 161.176 145.519C162.544 145.383 164.187 145.036 165.147 143.943C165.737 143.269 166.216 142.597 166.429 141.708C166.484 141.477 166.501 141.261 166.521 141.044C167.263 141.627 168.179 141.992 169.177 141.992C169.857 141.992 170.495 141.815 171.073 141.527C171.304 141.693 171.548 141.836 171.807 141.956C172.22 142.643 173.008 143.36 173.825 143.492C174.999 143.685 175.961 143.896 177.163 143.656C178.932 143.303 180.048 141.589 180.628 140.021C180.849 139.424 180.921 138.828 180.885 138.253C181.72 138.251 182.545 138.147 183.241 137.991C184.527 137.703 185.773 136.811 186.62 135.681C187.352 136.461 188.379 136.96 189.511 136.96C191.683 136.96 193.495 135.148 193.495 132.976C193.495 130.804 191.683 128.992 189.511 128.992Z" fill="#F1AC56"/>
</g>
<defs>
<clipPath id="clip0_86_945">
<rect width="221.81" height="91.3497" fill="white" transform="translate(0.5 77.5)"/>
</clipPath>
</defs>
</svg>
