<svg width="223" height="166" viewBox="0 0 223 166" fill="none" xmlns="http://www.w3.org/2000/svg">
<g clip-path="url(#clip0_6513_1233)">
<path d="M167.627 89.6766C173.174 85.598 182.28 88.6113 182.28 98.4246C184.947 92.9179 196.6 94.2513 196 103.478C199.614 101.091 204.6 103.251 204.44 108.358C209.334 105.731 218.32 111.131 216.362 119.103C213.707 118.238 210.574 118.691 208 120.811C206.44 114.745 200.04 112.865 194.44 113.251C190.082 113.557 186.387 116.851 184.987 120.305C182.547 118.77 179.334 118.437 175.774 119.251C169.667 120.638 166.107 124.425 165.334 129.691C162.6 124.585 155.107 126.745 154.214 131.478C152.28 124.585 145.44 122.585 140.774 123.091C136.76 123.518 131.614 125.758 130.094 131.638C126.774 128.45 121.4 126.103 115.547 126.585C111.147 126.945 107.067 129.211 104.574 132.557C103.907 126.677 92.5204 124.465 88.2538 129.985C86.2004 127.585 82.7338 125.731 78.9471 125.411C75.1605 125.103 70.0938 126.078 67.1738 129.531C66.3471 124.051 58.8271 120.677 53.6005 122.677C51.9605 116.437 39.5605 111.918 33.7738 122.145C33.1071 115.918 28.2138 113.478 23.7738 113.478C17.0938 113.478 13.5471 118.585 13.3338 121.691C11.7338 120.798 9.94713 120.585 8.24047 120.918C6.0818 113.038 15.3738 106.997 20.6671 110.585C19.3338 102.585 29.1071 99.2512 33.6138 104.585C31.7871 97.4246 39.2538 92.3713 45.0538 94.5046C47.0818 87.1033 59.4805 82.7699 65.7738 91.0246C66.6671 85.6913 71.8671 82.1979 78.2805 83.0913C81.2671 83.5046 83.6138 84.9966 85.1204 86.8646C87.3338 80.8379 96.6951 79.5712 99.7738 84.9179C101.707 74.1579 120.067 69.2233 127.44 80.6113C129.894 79.3713 132.96 79.0099 136.44 79.9179C142 81.3712 144.947 86.0779 145.334 89.6913C148.72 79.9179 164.574 81.6913 167.614 89.6766H167.627Z" fill="#D87639"/>
<path d="M33.7742 122.145C39.5609 111.918 51.9609 116.437 53.6009 122.677C58.8275 120.677 66.3475 124.051 67.1742 129.531C70.0942 126.078 75.1609 125.103 78.9475 125.411C82.7342 125.731 86.2008 127.585 88.2542 129.985C92.5208 124.465 103.908 126.677 104.574 132.557C107.068 129.211 111.148 126.945 115.548 126.585C121.401 126.103 126.774 128.45 130.094 131.638C131.614 125.758 136.761 123.518 140.774 123.091C145.441 122.585 152.281 124.585 154.214 131.478C155.108 126.745 162.601 124.585 165.334 129.691C166.108 124.425 169.668 120.638 175.774 119.251C179.334 118.437 182.548 118.77 184.988 120.305C186.322 117.013 189.752 113.895 193.845 113.343C190.47 110.078 184.157 110.549 182.281 114.425C182.281 104.611 173.174 101.598 167.628 105.677H167.614C164.574 97.6913 148.721 95.9179 145.334 105.691C144.948 102.078 142.001 97.3712 136.441 95.9179C132.961 95.0099 129.894 95.3713 127.441 96.6113C120.068 85.2233 101.708 90.1579 99.7742 100.918C96.6955 95.5712 87.3342 96.8379 85.1208 102.865C83.6142 100.997 81.2675 99.5046 78.2809 99.0913C71.8675 98.1979 66.6675 101.691 65.7742 107.025C59.4809 98.7699 47.0822 103.103 45.0542 110.505C39.2542 108.371 31.7875 113.425 33.6142 120.585L33.4462 120.417C33.5902 120.961 33.7075 121.529 33.7742 122.145Z" fill="#B74F2F"/>
<path d="M192.661 123.695C192.661 134.923 159.082 144.029 117.661 144.029C76.2411 144.029 42.6611 134.923 42.6611 123.695C42.6611 112.467 76.2411 103.362 117.661 103.362C159.082 103.362 192.661 112.467 192.661 123.695Z" fill="#612D26"/>
<path d="M216.362 119.103C219.841 120.223 222.534 123.585 222.214 128.358C221.721 135.905 216.761 138.158 211.654 137.425C211.654 138.783 211.348 140.238 210.668 141.691C208.308 146.798 200.001 148.811 192.001 145.251C190.029 155.851 176.001 156.437 170.548 153.01C167.801 159.238 158.696 161.025 153.828 157.065C151.734 163.265 140.534 164.505 136.601 158.251C132.948 163.585 126.721 166.251 116.601 165.251C111.029 164.691 107.601 162.838 105.574 160.545C96.8809 168.825 82.2276 163.411 79.9343 156.251C77.6143 159.411 72.2809 161.411 65.7743 160.251C62.1343 159.598 58.4676 157.131 56.8143 153.545C51.5076 159.918 38.5476 156.677 37.6143 148.918C31.3876 151.198 19.9343 150.585 16.2809 145.091C15.0009 143.171 14.2676 141.305 13.9609 139.545C5.90758 140.158 0.734263 136.571 0.44093 130.585C0.20093 125.731 4.01426 121.705 8.24093 120.918C9.9476 120.585 11.7343 120.798 13.3343 121.691C13.5476 118.585 17.0943 113.478 23.7743 113.478C28.2143 113.478 33.1076 115.918 33.7743 122.145C39.5609 111.918 51.9609 116.437 53.6009 122.677C58.8276 120.677 66.3476 124.051 67.1743 129.531C70.0943 126.078 75.1609 125.103 78.9476 125.411C82.7343 125.731 86.2009 127.585 88.2542 129.985C92.5209 124.465 103.908 126.677 104.574 132.557C107.068 129.211 111.148 126.945 115.548 126.585C121.401 126.103 126.774 128.45 130.094 131.638C131.614 125.758 136.761 123.518 140.774 123.091C145.441 122.585 152.281 124.585 154.214 131.478C155.108 126.745 162.601 124.585 165.334 129.691C166.108 124.425 169.668 120.638 175.774 119.251C179.334 118.437 182.548 118.77 184.988 120.305C186.388 116.851 190.082 113.557 194.441 113.251C200.041 112.865 206.441 114.745 208.001 120.811C210.574 118.691 213.708 118.238 216.362 119.103Z" fill="#E88D3A"/>
<path d="M216.979 119.362C216.409 126.333 211.749 128.426 206.943 127.737C206.943 129.033 206.651 130.418 206.005 131.802C203.754 136.669 195.838 138.589 188.214 135.195C186.333 145.298 172.965 145.857 167.767 142.591C165.149 148.526 156.473 150.229 151.833 146.453C149.837 152.362 139.165 153.545 135.415 147.585C131.931 152.667 125.998 155.21 116.354 154.257C111.042 153.722 107.775 151.955 105.845 149.77C97.5595 157.661 83.5928 152.502 81.4088 145.679C79.1968 148.69 74.1141 150.597 67.9141 149.49C64.4435 148.869 60.9488 146.518 59.3741 143.099C54.3155 149.173 41.9661 146.086 41.0755 138.69C35.1408 140.862 24.2248 140.278 20.7435 135.042C19.5235 133.213 18.8235 131.434 18.5315 129.758C11.1275 130.321 6.29147 127.154 5.70747 121.806C2.61414 123.411 0.251472 126.734 0.440806 130.585C0.734139 136.571 5.90746 140.158 13.9608 139.545C14.2675 141.305 15.0008 143.171 16.2808 145.091C19.9341 150.585 31.3875 151.198 37.6141 148.918C38.5475 156.677 51.5075 159.918 56.8141 153.545C58.4675 157.131 62.1341 159.598 65.7741 160.251C72.2808 161.411 77.6141 159.411 79.9341 156.251C82.2275 163.411 96.8808 168.825 105.574 160.545C107.601 162.838 111.029 164.691 116.601 165.251C126.721 166.251 132.947 163.585 136.601 158.251C140.534 164.505 151.734 163.265 153.827 157.065C158.695 161.025 167.801 159.238 170.547 153.01C176.001 156.437 190.029 155.851 192.001 145.251C200.001 148.811 208.307 146.798 210.667 141.691C211.347 140.238 211.654 138.783 211.654 137.425C216.761 138.158 221.721 135.905 222.214 128.358C222.515 123.878 220.149 120.666 216.979 119.362Z" fill="#D87639"/>
<path d="M30.2344 123.654L30.2584 123.671L30.3144 123.711L30.2344 123.654Z" fill="#F1AC56"/>
<path d="M30.7585 124.058C30.5918 123.93 30.4238 123.801 30.2585 123.671C29.7198 123.19 29.0785 122.871 28.4038 122.741C28.6532 122.109 28.7838 121.367 28.7025 120.695C28.5012 119.01 27.8878 117.903 26.5038 116.893C25.4212 116.103 23.9332 116.19 22.6972 116.385C21.6145 116.557 20.5798 117.346 19.8065 118.067C17.9838 119.766 16.9105 122.671 18.2652 124.966C19.3532 126.805 21.7332 127.515 23.7732 127.079C23.7185 127.67 23.7838 128.267 24.0225 128.843C24.3692 129.679 24.4958 129.902 25.0745 130.619C25.6185 131.294 26.6225 131.565 27.4412 131.599C27.7065 131.61 28.3625 131.79 27.5265 131.57C29.0505 131.971 30.5919 131.318 31.4145 129.989C31.9745 129.081 31.9585 128.074 31.9945 127.057C32.0212 126.313 31.8252 125.499 31.4225 124.87C31.2545 124.549 31.0332 124.278 30.7585 124.058Z" fill="#F1AC56"/>
<path d="M55.6112 131.859L55.3499 131.666C54.9979 131.242 54.5672 130.893 54.0699 130.654C53.6445 129.341 52.7725 128.201 51.4899 127.398C50.6739 126.887 49.5605 126.617 48.5445 126.711C48.5685 126.459 48.5872 126.206 48.5712 125.962C48.4699 124.526 47.9645 123.37 47.0112 122.294C45.4379 120.519 42.3752 120.619 40.7846 122.263C39.6139 123.471 39.4765 125.098 40.0779 126.423C39.8019 127.591 40.2272 128.874 41.0299 129.758C41.7192 130.521 42.9645 130.873 43.9779 130.806C43.4605 132.015 43.3565 133.43 43.7059 134.647C44.3979 137.045 46.5859 138.025 48.7992 137.901C49.6072 138.035 50.4432 138.045 51.3179 138.023L51.4459 138.078H51.4512C52.8472 138.651 54.4005 138.521 55.6112 137.31C56.9752 135.945 57.2525 133.177 55.6112 131.859Z" fill="#F1AC56"/>
<path d="M75.1715 130.485C73.8635 130.785 72.5475 131.405 71.4821 132.283C71.1581 132.075 70.8061 131.901 70.4101 131.739C71.9861 132.382 71.0355 131.963 70.6501 131.77C69.6515 131.27 68.9688 131.122 67.8674 131.006C67.0221 130.918 65.9648 131.23 65.2515 131.671C64.4021 132.198 63.4474 133.165 63.2981 134.185C63.1354 135.291 63.1341 135.465 63.2994 136.569C63.4928 137.873 64.8421 138.979 66.0368 139.307C66.4141 139.411 66.8155 139.447 67.2181 139.43L67.3648 139.485C68.2328 139.711 69.0314 139.607 69.8234 139.357C70.0941 139.893 70.4275 140.395 70.8421 140.833C71.3448 142.022 72.3274 143.034 73.7928 143.519C76.4181 144.389 79.7554 143.919 81.9528 142.281C85.2674 139.813 86.4768 135.522 83.5354 132.223C81.5781 130.03 77.8261 129.875 75.1715 130.485Z" fill="#F1AC56"/>
<path d="M59.1089 125.994C57.5769 125.994 56.2969 127.273 56.2969 128.807C56.2969 130.341 57.5769 131.619 59.1089 131.619C60.6409 131.619 61.9209 130.341 61.9209 128.807C61.9209 127.273 60.6409 125.994 59.1089 125.994Z" fill="#F1AC56"/>
<path d="M131.997 140.033C130.606 140.033 129.445 141.193 129.445 142.585C129.445 143.977 130.606 145.137 131.997 145.137C133.387 145.137 134.549 143.977 134.549 142.585C134.549 141.193 133.387 140.033 131.997 140.033Z" fill="#F1AC56"/>
<path d="M33.9675 132.059L33.8689 132.133C32.8089 132.429 32.1275 133.842 33.0995 134.815C34.0755 135.791 35.4968 135.102 35.7875 134.039L35.8555 133.947C36.6635 132.854 35.0595 131.249 33.9675 132.059Z" fill="#F1AC56"/>
<path d="M99.8944 135.958C98.8651 135.502 98.0851 135.247 96.9291 135.221C95.8864 135.198 94.8197 135.625 93.9197 136.091C91.4651 137.362 90.2237 140.747 91.7597 143.155C92.2291 143.89 92.8638 144.469 93.6064 144.841C94.1971 145.474 94.9584 145.945 95.7998 146.125C97.0251 146.385 98.0904 146.174 99.2078 145.622L99.3957 145.501C100.253 144.83 100.358 144.755 99.7078 145.273C100.093 145.034 100.449 144.734 100.785 144.429C101.981 143.335 102.592 142.099 102.746 140.475C102.92 138.658 101.498 136.669 99.8944 135.958Z" fill="#F1AC56"/>
<path d="M126.403 135.51C124.703 133.752 122.319 132.932 119.941 132.683C116.941 132.372 114.48 133.226 112.699 135.75C112.487 136.051 112.308 136.36 112.149 136.674C110.833 136.076 109.263 135.988 107.833 136.236C107.52 136.291 107.224 136.391 106.943 136.52C104.987 137.208 103.661 139.366 103.899 141.422C104.159 143.678 105.531 145.575 107.844 146.088C109.829 146.528 111.733 146.02 113.285 144.736L113.317 144.703C114.321 145.81 115.676 146.643 117.283 146.999C117.691 147.091 118.095 147.136 118.5 147.16C119.385 147.324 120.292 147.28 121.132 147.026C121.265 147.036 121.395 147.05 121.531 147.056C127.205 147.296 130.199 139.435 126.403 135.51Z" fill="#F1AC56"/>
<path d="M147.963 131.682C147.935 131.473 147.897 131.265 147.83 131.059C147.473 129.977 146.407 128.889 145.154 129.023C143.791 129.169 142.609 129.667 141.874 130.911C141.474 131.589 141.383 132.318 141.482 133.01C139.254 133.142 137.411 134.839 137.341 137.122C137.282 137.313 137.231 137.502 137.195 137.69C136.862 139.378 137.65 141.461 139.546 141.83C140.769 142.07 141.851 142.171 143.078 141.937C145.337 141.507 146.699 139.441 146.786 137.251C146.809 136.666 146.667 136.106 146.425 135.591C147.445 134.985 148.121 133.835 148.055 132.669L148.066 132.589C148.055 132.209 147.934 131.367 147.963 131.682Z" fill="#F1AC56"/>
<path d="M189.441 125.601C188.57 125.601 187.765 125.901 187.103 126.389L187.003 126.134C186.874 125.859 186.567 125.002 186.957 126.177C186.767 125.606 186.487 124.961 186.142 124.446C184.535 122.042 182.03 121.046 179.198 121.474C180.846 121.226 178.963 121.437 178.413 121.622C177.575 121.901 176.819 122.294 176.189 122.925C174.982 124.13 174.442 126.009 174.89 127.663L174.831 128.011C174.189 127.977 173.497 128.046 173.017 128.221C171.861 128.642 171.133 129.255 170.405 130.127C169.99 129.994 169.561 129.902 169.107 129.902C167.001 129.902 165.213 131.466 164.839 133.477C164.421 133.094 163.954 132.765 163.511 132.526C162.109 131.771 160.558 131.537 159.009 131.931C157.319 132.361 155.909 134.089 155.975 135.866L155.922 135.933C155.335 136.761 155.374 137.922 155.579 138.854C155.806 139.893 156.693 140.807 157.569 141.359C158.585 142.001 159.921 142.247 161.106 142.127C162.474 141.991 164.117 141.645 165.077 140.551C165.667 139.878 166.146 139.206 166.359 138.317C166.414 138.086 166.431 137.87 166.451 137.653C167.193 138.235 168.109 138.601 169.107 138.601C169.787 138.601 170.425 138.423 171.003 138.135C171.234 138.302 171.478 138.445 171.737 138.565C172.15 139.251 172.938 139.969 173.754 140.101C174.929 140.294 175.891 140.505 177.093 140.265C178.862 139.911 179.978 138.198 180.558 136.63C180.779 136.033 180.851 135.437 180.815 134.862C181.65 134.859 182.474 134.755 183.171 134.599C184.457 134.311 185.703 133.419 186.55 132.29C187.282 133.07 188.307 133.569 189.441 133.569C191.613 133.569 193.425 131.757 193.425 129.585C193.425 127.413 191.613 125.601 189.441 125.601Z" fill="#F1AC56"/>
<path d="M203.255 119.127C202.529 117.802 201.374 117.065 200.01 116.529C198.905 116.093 197.401 115.945 196.279 116.373C194.437 117.073 193.071 118.499 193.071 120.585C193.071 121.425 193.301 122.151 193.686 122.771C193.771 123.755 194.109 124.387 194.71 125.163C195.103 125.671 195.739 126.042 196.325 126.305C197.555 126.862 198.946 127.407 200.303 126.887C201.962 126.255 202.975 125.182 203.586 123.531C204.123 122.079 203.999 120.482 203.255 119.127Z" fill="#F1AC56"/>
<path d="M111.336 146.759C123.261 146.759 161.114 144.685 169.929 138.981C168.373 100.091 164.786 58.6553 159.04 41.2379C151.317 17.8286 133.35 2.60864 111.336 2.60864C89.3208 2.60864 71.3542 17.8286 63.6315 41.2379C57.8848 58.6553 54.2982 100.091 52.7422 138.981C61.5569 144.685 99.4102 146.759 111.336 146.759Z" fill="#CD5C29"/>
<path d="M111.336 122.491C87.9115 122.491 67.3635 109.965 55.7409 91.1299C54.3849 106.254 53.3875 122.833 52.7422 138.981C61.5569 144.685 99.4102 146.759 111.336 146.759C123.261 146.759 161.114 144.685 169.929 138.981C169.284 122.833 168.286 106.254 166.93 91.1299C155.308 109.965 134.76 122.491 111.336 122.491Z" fill="#BA4927"/>
<path d="M60.0755 140.349C61.5422 103.673 64.9262 64.5953 70.3449 48.1673C77.6289 26.0913 94.5742 11.7353 115.336 11.7353C136.098 11.7353 153.042 26.0913 160.326 48.1673C161.319 51.1793 160.541 45.786 159.04 41.238C151.317 17.8287 133.35 2.60872 111.336 2.60872C89.3208 2.60872 71.3542 17.8287 63.6315 41.238C57.8848 58.6553 54.2982 100.091 52.7422 138.981C55.8342 140.982 62.1129 141.667 60.0755 140.349Z" fill="#E6894A"/>
<path d="M54.7904 137.845C64.4624 142.694 98.7104 144.759 111.336 144.759C123.961 144.759 158.209 142.694 167.881 137.845C166.021 92.4686 162.016 56.6406 157.141 41.8646C149.56 18.8846 132.008 4.60864 111.336 4.60864C90.6638 4.60864 73.1118 18.8846 65.5304 41.8646C60.6558 56.6406 56.6504 92.4686 54.7904 137.845ZM111.336 148.759C104.006 148.759 61.8637 147.266 51.6557 140.659C51.0624 140.275 50.7158 139.606 50.7438 138.901C51.6331 116.666 54.4838 62.5806 61.7318 40.6112C69.8718 15.9366 88.8784 0.608643 111.336 0.608643C133.793 0.608643 152.8 15.9366 160.94 40.6112C168.188 62.5806 171.038 116.666 171.928 138.901C171.956 139.606 171.609 140.275 171.016 140.659C160.808 147.266 118.665 148.759 111.336 148.759Z" fill="#100F0D"/>
<path d="M119.766 86.1046L119.779 86.1579C119.779 90.3979 116.006 97.5712 111.339 97.5712C106.672 97.5712 102.886 90.3979 102.886 86.1579L102.912 86.1046C105.459 86.9192 108.326 87.3845 111.339 87.3845C114.366 87.3845 117.219 86.9192 119.766 86.1046Z" fill="#F8F8F8"/>
<path d="M111.339 61.5994C122.006 61.5994 130.673 67.3727 130.673 74.4914C130.673 79.5994 126.219 84.0114 119.766 86.1048C117.219 86.9194 114.366 87.3847 111.339 87.3847C108.326 87.3847 105.459 86.9194 102.913 86.1048V86.0927C96.4592 84.0114 92.0059 79.5994 92.0059 74.4914C92.0059 67.3727 100.659 61.5994 111.339 61.5994Z" fill="#FDEAB3"/>
<path d="M120.113 69.7912C120.113 72.9218 116.183 76.9365 111.335 76.9365C106.487 76.9365 102.558 72.9218 102.558 69.7912C102.558 66.6618 106.487 65.6031 111.335 65.6031C116.183 65.6031 120.113 66.6618 120.113 69.7912Z" fill="#100F0D"/>
<path d="M111.085 68.8087C111.207 69.6274 110.101 70.474 108.616 70.698C107.129 70.922 105.823 70.4394 105.699 69.6207C105.577 68.802 106.681 67.9554 108.168 67.7314C109.653 67.5074 110.961 67.9887 111.085 68.8087Z" fill="white"/>
<path d="M111.336 86.0473C101.41 86.0473 93.3356 80.8646 93.3356 74.4913C93.3356 68.1193 101.41 62.9353 111.336 62.9353C121.261 62.9353 129.336 68.1193 129.336 74.4913C129.336 80.8646 121.261 86.0473 111.336 86.0473ZM112.336 96.074V88.6793C114.4 88.6113 116.382 88.3367 118.246 87.8793C117.553 91.198 115.1 95.2433 112.336 96.074ZM104.425 87.8793C106.289 88.3367 108.272 88.6113 110.336 88.6793V96.074C107.572 95.2433 105.118 91.198 104.425 87.8793ZM132.002 74.4913C132.002 66.65 122.732 60.2687 111.336 60.2687C99.9396 60.2687 90.6689 66.65 90.6689 74.4913C90.6689 79.914 95.1023 84.634 101.605 87.0327C102.065 91.6313 105.946 98.9086 111.336 98.9086C116.725 98.9086 120.606 91.6313 121.066 87.0327C127.569 84.634 132.002 79.914 132.002 74.4913Z" fill="#100F0D"/>
<path d="M98.4302 75.7338H87.9089C87.5395 75.7338 87.2422 75.4352 87.2422 75.0672C87.2422 74.6992 87.5395 74.4005 87.9089 74.4005H98.4302C98.7995 74.4005 99.0968 74.6992 99.0968 75.0672C99.0968 75.4352 98.7995 75.7338 98.4302 75.7338Z" fill="#100F0D"/>
<path d="M88.5432 83.7792C88.3045 83.7792 88.0725 83.6498 87.9538 83.4232C87.7818 83.0978 87.9085 82.6938 88.2338 82.5232L98.1205 77.3272C98.4445 77.1566 98.8498 77.2819 99.0205 77.6072C99.1925 77.9339 99.0658 78.3366 98.7405 78.5072L88.8538 83.7032L88.5432 83.7792Z" fill="#100F0D"/>
<path d="M98.4298 73.2021L98.1205 73.1247L88.2338 67.9301C87.9085 67.7594 87.7818 67.3554 87.9538 67.0301C88.1245 66.7047 88.5298 66.5807 88.8538 66.7501L98.7405 71.9447C99.0658 72.1154 99.1925 72.5194 99.0205 72.8447C98.9018 73.0714 98.6698 73.2021 98.4298 73.2021Z" fill="#100F0D"/>
<path d="M134.762 75.7338H124.241C123.872 75.7338 123.574 75.4352 123.574 75.0672C123.574 74.6992 123.872 74.4005 124.241 74.4005H134.762C135.132 74.4005 135.429 74.6992 135.429 75.0672C135.429 75.4352 135.132 75.7338 134.762 75.7338Z" fill="#100F0D"/>
<path d="M134.127 83.7792L133.817 83.7032L123.93 78.5072C123.605 78.3366 123.478 77.9339 123.65 77.6072C123.822 77.2819 124.226 77.1566 124.55 77.3272L134.437 82.5232C134.762 82.6938 134.889 83.0978 134.717 83.4232C134.598 83.6498 134.366 83.7792 134.127 83.7792Z" fill="#100F0D"/>
<path d="M124.241 73.2021C124.001 73.2021 123.769 73.0714 123.65 72.8447C123.478 72.5194 123.605 72.1154 123.93 71.9447L133.817 66.7501C134.141 66.5807 134.546 66.7047 134.717 67.0301C134.889 67.3554 134.762 67.7594 134.437 67.9301L124.55 73.1247L124.241 73.2021Z" fill="#100F0D"/>
<path d="M87.5859 60.4915C87.5859 64.4208 84.4033 67.6035 80.474 67.6035C76.5473 67.6035 73.3633 64.4208 73.3633 60.4915C73.3633 56.5648 76.5473 53.3808 80.474 53.3808C84.4033 53.3808 87.5859 56.5648 87.5859 60.4915Z" fill="#100F0D"/>
<path d="M80.4743 58.6031C80.4743 59.7685 79.5289 60.7138 78.3636 60.7138C77.1969 60.7138 76.2529 59.7685 76.2529 58.6031C76.2529 57.4378 77.1969 56.4925 78.3636 56.4925C79.5289 56.4925 80.4743 57.4378 80.4743 58.6031Z" fill="white"/>
<path d="M68.2529 45.3247C75.8596 46.45 89.8343 49.1873 98.7703 52.7726C101.892 45.694 102.516 37.566 99.9969 29.9607C100.068 34.2327 99.5543 37.4793 98.7156 39.898C87.253 34.4406 76.3836 31.5553 72.5396 30.7407C70.6676 33.8673 68.4849 40.4567 68.2529 45.3247Z" fill="#100F0D"/>
<path d="M149.306 60.4915C149.306 64.4208 146.122 67.6035 142.194 67.6035C138.266 67.6035 135.083 64.4208 135.083 60.4915C135.083 56.5648 138.266 53.3808 142.194 53.3808C146.122 53.3808 149.306 56.5648 149.306 60.4915Z" fill="#100F0D"/>
<path d="M142.193 58.6031C142.193 59.7685 141.248 60.7138 140.082 60.7138C138.917 60.7138 137.972 59.7685 137.972 58.6031C137.972 57.4378 138.917 56.4925 140.082 56.4925C141.248 56.4925 142.193 57.4378 142.193 58.6031Z" fill="white"/>
<path d="M154.42 45.3247C146.812 46.45 132.837 49.1873 123.901 52.7726C120.78 45.694 120.156 37.566 122.674 29.9607C122.604 34.2327 123.117 37.4793 123.956 39.898C135.42 34.4406 146.288 31.5553 150.132 30.7407C152.004 33.8673 154.186 40.4567 154.42 45.3247Z" fill="#100F0D"/>
<path d="M216.362 119.103C219.841 120.223 222.534 123.585 222.214 128.358C221.721 135.905 216.761 138.158 211.654 137.425C211.654 138.783 211.348 140.238 210.668 141.691C208.308 146.798 200.001 148.811 192.001 145.251C190.029 155.851 176.001 156.437 170.548 153.01C167.801 159.238 158.696 161.025 153.828 157.065C151.734 163.265 140.534 164.505 136.601 158.251C132.948 163.585 126.721 166.251 116.601 165.251C111.029 164.691 107.601 162.838 105.574 160.545C96.8809 168.825 82.2276 163.411 79.9343 156.251C77.6143 159.411 72.2809 161.411 65.7743 160.251C62.1343 159.598 58.4676 157.131 56.8143 153.545C51.5076 159.918 38.5476 156.677 37.6143 148.918C31.3876 151.198 19.9343 150.585 16.2809 145.091C15.0009 143.171 14.2676 141.305 13.9609 139.545C5.90758 140.158 0.734263 136.571 0.44093 130.585C0.20093 125.731 4.01426 121.705 8.24093 120.918C9.9476 120.585 11.7343 120.798 13.3343 121.691C13.5476 118.585 17.0943 113.478 23.7743 113.478C28.2143 113.478 33.1076 115.918 33.7743 122.145C39.5609 111.918 51.9609 116.437 53.6009 122.677C58.8276 120.677 66.3476 124.051 67.1743 129.531C70.0943 126.078 75.1609 125.103 78.9476 125.411C82.7343 125.731 86.2009 127.585 88.2542 129.985C92.5209 124.465 103.908 126.677 104.574 132.557C107.068 129.211 111.148 126.945 115.548 126.585C121.401 126.103 126.774 128.45 130.094 131.638C131.614 125.758 136.761 123.518 140.774 123.091C145.441 122.585 152.281 124.585 154.214 131.478C155.108 126.745 162.601 124.585 165.334 129.691C166.108 124.425 169.668 120.638 175.774 119.251C179.334 118.437 182.548 118.77 184.988 120.305C186.388 116.851 190.082 113.557 194.441 113.251C200.041 112.865 206.441 114.745 208.001 120.811C210.574 118.691 213.708 118.238 216.362 119.103Z" fill="#E88D3A"/>
<path d="M216.979 119.362C216.409 126.333 211.749 128.426 206.943 127.737C206.943 129.033 206.651 130.418 206.005 131.802C203.754 136.669 195.838 138.589 188.214 135.195C186.333 145.298 172.965 145.857 167.767 142.591C165.149 148.526 156.473 150.229 151.833 146.453C149.837 152.362 139.165 153.545 135.415 147.585C131.931 152.667 125.998 155.21 116.354 154.257C111.042 153.722 107.775 151.955 105.845 149.77C97.5595 157.661 83.5928 152.502 81.4088 145.679C79.1968 148.69 74.1141 150.597 67.9141 149.49C64.4435 148.869 60.9488 146.518 59.3741 143.099C54.3155 149.173 41.9661 146.086 41.0755 138.69C35.1408 140.862 24.2248 140.278 20.7435 135.042C19.5235 133.213 18.8235 131.434 18.5315 129.758C11.1275 130.321 6.29147 127.154 5.70747 121.806C2.61414 123.411 0.251472 126.734 0.440806 130.585C0.734139 136.571 5.90746 140.158 13.9608 139.545C14.2675 141.305 15.0008 143.171 16.2808 145.091C19.9341 150.585 31.3875 151.198 37.6141 148.918C38.5475 156.677 51.5075 159.918 56.8141 153.545C58.4675 157.131 62.1341 159.598 65.7741 160.251C72.2808 161.411 77.6141 159.411 79.9341 156.251C82.2275 163.411 96.8808 168.825 105.574 160.545C107.601 162.838 111.029 164.691 116.601 165.251C126.721 166.251 132.947 163.585 136.601 158.251C140.534 164.505 151.734 163.265 153.827 157.065C158.695 161.025 167.801 159.238 170.547 153.01C176.001 156.437 190.029 155.851 192.001 145.251C200.001 148.811 208.307 146.798 210.667 141.691C211.347 140.238 211.654 138.783 211.654 137.425C216.761 138.158 221.721 135.905 222.214 128.358C222.515 123.878 220.149 120.666 216.979 119.362Z" fill="#D87639"/>
<path d="M30.2344 123.654L30.2584 123.671L30.3144 123.711L30.2344 123.654Z" fill="#F1AC56"/>
<path d="M30.7585 124.058C30.5918 123.93 30.4238 123.801 30.2585 123.671C29.7198 123.19 29.0785 122.871 28.4038 122.741C28.6532 122.109 28.7838 121.367 28.7025 120.695C28.5012 119.01 27.8878 117.903 26.5038 116.893C25.4212 116.103 23.9332 116.19 22.6972 116.385C21.6145 116.557 20.5798 117.346 19.8065 118.067C17.9838 119.766 16.9105 122.671 18.2652 124.966C19.3532 126.805 21.7332 127.515 23.7732 127.079C23.7185 127.67 23.7838 128.267 24.0225 128.843C24.3692 129.679 24.4958 129.902 25.0745 130.619C25.6185 131.294 26.6225 131.565 27.4412 131.599C27.7065 131.61 28.3625 131.79 27.5265 131.57C29.0505 131.971 30.5919 131.318 31.4145 129.989C31.9745 129.081 31.9585 128.074 31.9945 127.057C32.0212 126.313 31.8252 125.499 31.4225 124.87C31.2545 124.549 31.0332 124.278 30.7585 124.058Z" fill="#F1AC56"/>
<path d="M55.6112 131.859L55.3499 131.666C54.9979 131.242 54.5672 130.893 54.0699 130.654C53.6445 129.341 52.7725 128.201 51.4899 127.398C50.6739 126.887 49.5605 126.617 48.5445 126.711C48.5685 126.459 48.5872 126.206 48.5712 125.962C48.4699 124.526 47.9645 123.37 47.0112 122.294C45.4379 120.519 42.3752 120.619 40.7846 122.263C39.6139 123.471 39.4765 125.098 40.0779 126.423C39.8019 127.591 40.2272 128.874 41.0299 129.758C41.7192 130.521 42.9645 130.873 43.9779 130.806C43.4605 132.015 43.3565 133.43 43.7059 134.647C44.3979 137.045 46.5859 138.025 48.7992 137.901C49.6072 138.035 50.4432 138.045 51.3179 138.023L51.4459 138.078H51.4512C52.8472 138.651 54.4005 138.521 55.6112 137.31C56.9752 135.945 57.2525 133.177 55.6112 131.859Z" fill="#F1AC56"/>
<path d="M75.1715 130.485C73.8635 130.785 72.5475 131.405 71.4821 132.283C71.1581 132.075 70.8061 131.901 70.4101 131.739C71.9861 132.382 71.0355 131.963 70.6501 131.77C69.6515 131.27 68.9688 131.122 67.8674 131.006C67.0221 130.918 65.9648 131.23 65.2515 131.671C64.4021 132.198 63.4474 133.165 63.2981 134.185C63.1354 135.291 63.1341 135.465 63.2994 136.569C63.4928 137.873 64.8421 138.979 66.0368 139.307C66.4141 139.411 66.8155 139.447 67.2181 139.43L67.3648 139.485C68.2328 139.711 69.0314 139.607 69.8234 139.357C70.0941 139.893 70.4275 140.395 70.8421 140.833C71.3448 142.022 72.3274 143.034 73.7928 143.519C76.4181 144.389 79.7554 143.919 81.9528 142.281C85.2674 139.813 86.4768 135.522 83.5354 132.223C81.5781 130.03 77.8261 129.875 75.1715 130.485Z" fill="#F1AC56"/>
<path d="M59.1089 125.994C57.5769 125.994 56.2969 127.273 56.2969 128.807C56.2969 130.341 57.5769 131.619 59.1089 131.619C60.6409 131.619 61.9209 130.341 61.9209 128.807C61.9209 127.273 60.6409 125.994 59.1089 125.994Z" fill="#F1AC56"/>
<path d="M131.997 140.033C130.606 140.033 129.445 141.193 129.445 142.585C129.445 143.977 130.606 145.137 131.997 145.137C133.387 145.137 134.549 143.977 134.549 142.585C134.549 141.193 133.387 140.033 131.997 140.033Z" fill="#F1AC56"/>
<path d="M33.9675 132.059L33.8689 132.133C32.8089 132.429 32.1275 133.842 33.0995 134.815C34.0755 135.791 35.4968 135.102 35.7875 134.039L35.8555 133.947C36.6635 132.854 35.0595 131.249 33.9675 132.059Z" fill="#F1AC56"/>
<path d="M99.8944 135.958C98.8651 135.502 98.0851 135.247 96.9291 135.221C95.8864 135.198 94.8197 135.625 93.9197 136.091C91.4651 137.362 90.2237 140.747 91.7597 143.155C92.2291 143.89 92.8638 144.469 93.6064 144.841C94.1971 145.474 94.9584 145.945 95.7998 146.125C97.0251 146.385 98.0904 146.174 99.2078 145.622L99.3957 145.501C100.253 144.83 100.358 144.755 99.7078 145.273C100.093 145.034 100.449 144.734 100.785 144.429C101.981 143.335 102.592 142.099 102.746 140.475C102.92 138.658 101.498 136.669 99.8944 135.958Z" fill="#F1AC56"/>
<path d="M126.403 135.51C124.703 133.752 122.319 132.932 119.941 132.683C116.941 132.372 114.48 133.226 112.699 135.75C112.487 136.051 112.308 136.36 112.149 136.674C110.833 136.076 109.263 135.988 107.833 136.236C107.52 136.291 107.224 136.391 106.943 136.52C104.987 137.208 103.661 139.366 103.899 141.422C104.159 143.678 105.531 145.575 107.844 146.088C109.829 146.528 111.733 146.02 113.285 144.736L113.317 144.703C114.321 145.81 115.676 146.643 117.283 146.999C117.691 147.091 118.095 147.136 118.5 147.16C119.385 147.324 120.292 147.28 121.132 147.026C121.265 147.036 121.395 147.05 121.531 147.056C127.205 147.296 130.199 139.435 126.403 135.51Z" fill="#F1AC56"/>
<path d="M147.963 131.682C147.935 131.473 147.897 131.265 147.83 131.059C147.473 129.977 146.407 128.889 145.154 129.023C143.791 129.169 142.609 129.667 141.874 130.911C141.474 131.589 141.383 132.318 141.482 133.01C139.254 133.142 137.411 134.839 137.341 137.122C137.282 137.313 137.231 137.502 137.195 137.69C136.862 139.378 137.65 141.461 139.546 141.83C140.769 142.07 141.851 142.171 143.078 141.937C145.337 141.507 146.699 139.441 146.786 137.251C146.809 136.666 146.667 136.106 146.425 135.591C147.445 134.985 148.121 133.835 148.055 132.669L148.066 132.589C148.055 132.209 147.934 131.367 147.963 131.682Z" fill="#F1AC56"/>
<path d="M189.441 125.601C188.57 125.601 187.765 125.901 187.103 126.389L187.003 126.134C186.874 125.859 186.567 125.002 186.957 126.177C186.767 125.606 186.487 124.961 186.142 124.446C184.535 122.042 182.03 121.046 179.198 121.474C180.846 121.226 178.963 121.437 178.413 121.622C177.575 121.901 176.819 122.294 176.189 122.925C174.982 124.13 174.442 126.009 174.89 127.663L174.831 128.011C174.189 127.977 173.497 128.046 173.017 128.221C171.861 128.642 171.133 129.255 170.405 130.127C169.99 129.994 169.561 129.902 169.107 129.902C167.001 129.902 165.213 131.466 164.839 133.477C164.421 133.094 163.954 132.765 163.511 132.526C162.109 131.771 160.558 131.537 159.009 131.931C157.319 132.361 155.909 134.089 155.975 135.866L155.922 135.933C155.335 136.761 155.374 137.922 155.579 138.854C155.806 139.893 156.693 140.807 157.569 141.359C158.585 142.001 159.921 142.247 161.106 142.127C162.474 141.991 164.117 141.645 165.077 140.551C165.667 139.878 166.146 139.206 166.359 138.317C166.414 138.086 166.431 137.87 166.451 137.653C167.193 138.235 168.109 138.601 169.107 138.601C169.787 138.601 170.425 138.423 171.003 138.135C171.234 138.302 171.478 138.445 171.737 138.565C172.15 139.251 172.938 139.969 173.754 140.101C174.929 140.294 175.891 140.505 177.093 140.265C178.862 139.911 179.978 138.198 180.558 136.63C180.779 136.033 180.851 135.437 180.815 134.862C181.65 134.859 182.474 134.755 183.171 134.599C184.457 134.311 185.703 133.419 186.55 132.29C187.282 133.07 188.307 133.569 189.441 133.569C191.613 133.569 193.425 131.757 193.425 129.585C193.425 127.413 191.613 125.601 189.441 125.601Z" fill="#F1AC56"/>
<path d="M203.255 119.127C202.529 117.802 201.374 117.065 200.01 116.529C198.905 116.093 197.401 115.945 196.279 116.373C194.437 117.073 193.071 118.499 193.071 120.585C193.071 121.425 193.301 122.151 193.686 122.771C193.771 123.755 194.109 124.387 194.71 125.163C195.103 125.671 195.739 126.042 196.325 126.305C197.555 126.862 198.946 127.407 200.303 126.887C201.962 126.255 202.975 125.182 203.586 123.531C204.123 122.079 203.999 120.482 203.255 119.127Z" fill="#F1AC56"/>
<path d="M54.9465 138.532L55.0278 138.731C49.1998 141.158 43.4145 142.571 38.4932 142.986C41.1598 135.319 48.3865 126.652 50.7198 124.652L51.7479 124.199C53.4932 128.092 54.6532 132.838 54.9465 138.532Z" fill="#FDEAB3"/>
<path d="M51.7476 124.199L50.7196 124.653C41.7196 130.986 35.0529 133.199 27.3862 134.533C29.7196 128.319 34.9462 119.986 42.7196 114.426L43.3862 113.479C46.6942 115.958 49.6529 119.451 51.7476 124.199Z" fill="#FDEAB3"/>
<path d="M31.1195 108.692C35.1595 109.104 39.5062 110.599 43.3862 113.479L42.7195 114.426C33.3862 119.759 25.8395 122.319 19.8262 124.986C21.6942 118.731 24.8928 113.146 31.1195 108.692Z" fill="#FDEAB3"/>
<path d="M73.1591 107.973C77.8791 113.866 78.0658 124.825 65.8258 132.986C62.3605 135.306 58.6791 137.211 55.0271 138.731L54.9458 138.533C54.6525 132.838 53.4925 128.093 51.7472 124.199C49.6525 119.451 46.6938 115.958 43.3858 113.479C39.5058 110.599 35.1591 109.105 31.1191 108.693C34.2125 106.479 38.0391 104.558 42.8258 102.973C53.9458 99.3061 67.8258 101.306 73.1591 107.973Z" fill="#CD5C29"/>
<path d="M73.9901 118.681C73.4808 121.966 71.4594 126.823 64.7234 131.315C62.0168 133.119 59.0955 134.719 56.0915 136.086C54.4315 119.245 45.0155 110.886 35.6661 108.225C37.8888 106.997 40.4608 105.867 43.4595 104.878C46.8581 103.755 50.6581 103.162 54.4501 103.162C62.0381 103.162 68.6115 105.487 71.6048 109.226C73.6555 111.791 74.5261 115.237 73.9901 118.681ZM51.3554 126.801C52.4314 129.801 53.1715 133.258 53.4888 137.206C49.5461 138.787 45.5168 139.943 41.6688 140.571C44.4808 134.73 49.1968 128.979 51.3554 126.801ZM30.7555 131.822C33.3608 126.565 37.7941 120.402 43.8848 116.05L44.1488 115.77C46.2648 117.65 48.1568 120.025 49.6901 122.951L49.5715 123.01C42.2341 128.173 36.6328 130.462 30.7555 131.822ZM24.2368 120.954C23.9115 121.087 23.5901 121.218 23.2728 121.35C24.9381 117.579 27.6261 113.639 32.4648 110.222C35.2635 110.679 38.0808 111.669 40.7128 113.25C34.4355 116.753 29.0275 118.986 24.2368 120.954ZM54.4501 99.162C50.2381 99.162 46.0035 99.8247 42.2061 101.078C28.9035 105.469 21.4128 112.663 17.9168 124.409C17.6941 125.155 17.9261 125.966 18.5128 126.482C19.0995 126.995 19.9328 127.123 20.6448 126.807C22.2368 126.099 23.9395 125.399 25.7555 124.654C27.8088 123.81 29.9701 122.922 32.2661 121.909C29.1035 126.033 26.8355 130.321 25.5181 133.83C25.2648 134.502 25.3928 135.258 25.8501 135.81C26.3075 136.362 27.0208 136.634 27.7328 136.503C32.4861 135.677 36.9995 134.498 41.9941 132.137C39.8488 135.299 37.8035 138.893 36.6101 142.322C36.3875 142.961 36.5048 143.669 36.9194 144.205C37.3008 144.695 37.8848 144.979 38.4995 144.979L38.6661 144.973C47.8128 144.21 58.3835 140.349 66.9421 134.643C74.8875 129.346 77.3101 123.373 77.9435 119.294C78.6488 114.746 77.4768 110.165 74.7275 106.727C70.9381 101.99 63.3581 99.162 54.4501 99.162Z" fill="#100F0D"/>
<path d="M179.813 102.973C184.6 104.558 188.44 106.479 191.533 108.693C187.493 109.093 183.134 110.586 179.253 113.491C175.946 115.973 172.986 119.466 170.906 124.211C169.16 128.105 168.013 132.838 167.706 138.533L167.626 138.746C163.96 137.225 160.28 135.306 156.813 132.986C144.586 124.825 144.773 113.866 149.48 107.973C154.813 101.306 168.706 99.306 179.813 102.973Z" fill="#CD5C29"/>
<path d="M171.919 124.652C174.253 126.652 181.479 135.319 184.146 142.986C179.239 142.571 173.453 141.158 167.626 138.746L167.706 138.532C168.013 132.838 169.159 128.104 170.906 124.211L171.919 124.652Z" fill="#FDEAB3"/>
<path d="M179.92 114.426C187.694 119.986 192.92 128.319 195.253 134.533C187.586 133.199 180.92 130.986 171.92 124.653L170.906 124.211C172.986 119.466 175.946 115.973 179.253 113.491L179.92 114.426Z" fill="#FDEAB3"/>
<path d="M191.533 108.692C197.76 113.146 200.96 118.731 202.813 124.986C196.813 122.319 189.253 119.759 179.92 114.426L179.253 113.491C183.134 110.586 187.493 109.092 191.533 108.692Z" fill="#FDEAB3"/>
<path d="M198.409 120.954C193.618 118.986 188.209 116.753 181.931 113.25C184.565 111.669 187.381 110.679 190.181 110.222C195.019 113.639 197.706 117.579 199.371 121.35C199.054 121.218 198.734 121.087 198.409 120.954ZM191.889 131.822C186.013 130.462 180.411 128.173 173.074 123.01L172.953 122.955C174.485 120.026 176.379 117.651 178.495 115.77L178.759 116.05C184.851 120.402 189.285 126.565 191.889 131.822ZM180.975 140.571C177.129 139.943 173.098 138.787 169.155 137.206C169.474 133.258 170.213 129.801 171.29 126.801C173.447 128.979 178.163 134.73 180.975 140.571ZM148.654 118.681C148.119 115.237 148.989 111.791 151.039 109.227C154.033 105.487 160.606 103.162 168.195 103.162C171.986 103.162 175.787 103.755 179.186 104.878C182.185 105.867 184.755 106.997 186.978 108.225C177.63 110.886 168.213 119.245 166.553 136.086C163.549 134.719 160.629 133.119 157.921 131.315C151.186 126.823 149.163 121.966 148.654 118.681ZM204.637 124.101C201.101 112.538 193.626 105.431 180.438 101.078C176.641 99.8246 172.407 99.1619 168.195 99.1619C159.287 99.1619 151.706 101.99 147.918 106.727C145.167 110.165 143.995 114.746 144.701 119.294C145.334 123.373 147.757 129.346 155.702 134.643C164.261 140.349 174.831 144.21 183.978 144.973L184.145 144.979H184.159C185.254 145.013 186.173 144.089 186.171 142.979C186.171 142.631 186.083 142.303 185.926 142.018C184.721 138.681 182.733 135.206 180.65 132.137C185.645 134.498 190.158 135.677 194.913 136.503C195.625 136.634 196.337 136.362 196.795 135.81C197.253 135.258 197.379 134.502 197.127 133.83C195.809 130.321 193.541 126.033 190.378 121.909C192.675 122.922 194.835 123.81 196.889 124.654C198.705 125.399 200.409 126.099 201.999 126.807C202.259 126.923 202.537 126.979 202.811 126.979H202.838C203.943 126.979 204.838 126.083 204.838 124.979C204.838 124.663 204.766 124.366 204.637 124.101Z" fill="#100F0D"/>
</g>
<defs>
<clipPath id="clip0_6513_1233">
<rect width="221.81" height="164.85" fill="white" transform="translate(0.430176 0.608643)"/>
</clipPath>
</defs>
</svg>
